<?xml version="1.0" encoding="utf-8"?>
<!-- Generator: Adobe Illustrator 14.0.0, SVG Export Plug-In . SVG Version: 6.00 Build 43363)  -->
<!DOCTYPE svg PUBLIC "-//W3C//DTD SVG 1.1//EN" "http://www.w3.org/Graphics/SVG/1.1/DTD/svg11.dtd">
<svg version="1.1" id="Layer_1" xmlns="http://www.w3.org/2000/svg" xmlns:xlink="http://www.w3.org/1999/xlink" x="0px" y="0px"
	 width="592.605px" height="665.25px" viewBox="0 0 592.605 665.25" enable-background="new 0 0 592.605 665.25"
	 xml:space="preserve">
<g>
	<g>
		<path fill="#FFFFFF" d="M296.292,0v0.058c0.001-0.01,0.009-0.021,0.012-0.029C296.301,0.018,296.293,0.009,296.292,0z"/>
		<g>
			<polygon fill="#FFFFFF" points="296.292,665.264 296.304,665.259 296.292,665.25 			"/>
			<path fill="#FFFFFF" d="M296.315,0.058V665.25c1.032-0.494,299.342-144.57,296.267-492.89
				C592.582,172.359,369.129,183.919,296.315,0.058z"/>
			<path fill="#FFFFFF" d="M296.315,0c-0.002,0.009-0.009,0.018-0.011,0.029c-0.003,0.008-0.011,0.02-0.012,0.029
				C223.478,183.919,0.023,172.359,0.023,172.359c-3.071,348.32,295.234,492.396,296.269,492.89c0,0.005,0.012,0.01,0.012,0.01
				l0.011,0.005v-0.015V0.058V0z"/>
		</g>
	</g>
	<g>
		<path d="M296.292,25.963v0.053c0.001-0.008,0.009-0.018,0.012-0.025C296.301,25.979,296.293,25.971,296.292,25.963z"/>
		<g>
			<polygon points="296.292,639.302 296.304,639.295 296.292,639.29 			"/>
			<path d="M296.315,26.016V639.29c0.951-0.457,275.972-133.289,273.144-454.421C569.459,184.868,363.447,195.526,296.315,26.016z"
				/>
			<path fill="#E11515" d="M296.315,25.963c-0.002,0.008-0.009,0.016-0.011,0.027c-0.003,0.008-0.011,0.018-0.012,0.025
				C229.159,195.526,23.148,184.868,23.148,184.868C20.319,506,295.341,638.833,296.292,639.29c0,0.001,0.012,0.006,0.012,0.006
				l0.011,0.007v-0.013V26.016V25.963z"/>
		</g>
	</g>
	<path fill="#FFFFFF" d="M294.614,163.992l45.023,32.692v371.137c0,0,81.604-68.266,111.616-117.3
		c0,0-79.727-124.036-77.851-275.952l-78.789-67.305V163.992z"/>
	<path fill="#FFFFFF" d="M297.427,163.992l-45.024,32.692v371.137c0,0-81.606-68.266-111.618-117.3
		c0,0,79.726-124.036,77.853-275.952l78.787-67.305L297.427,163.992z"/>
	<rect x="247.715" y="323.601" fill="#FFFFFF" width="96.61" height="33.652"/>
</g>
</svg>
