<svg xmlns="http://www.w3.org/2000/svg" width="257.986" height="250.113" viewBox="0 0 257.986 250.113"><path fill="#0878B7" d="M410.046 19.889h237.702v237.7H410.046zM-85.392 455.84h-52.138c-4.928 0-9.032-4.104-9.032-9.031V395.08c0-4.926 4.104-9.031 9.032-9.031h52.138c4.928 0 9.032 4.104 9.032 9.031v52.139c0 4.516-4.106 8.621-9.032 8.621z"/><g fill="#FFF"><path d="M-83.34 404.114h-5.337v-5.338c0-1.23-.82-2.056-2.054-2.056h-2.463c-1.23 0-2.054.822-2.054 2.056v5.338h-5.337c-1.23 0-2.054.817-2.054 2.053v2.463c0 1.23.821 2.053 2.054 2.053h5.337v5.339c0 1.229.821 2.053 2.054 2.053h2.463c1.231 0 2.054-.82 2.054-2.053v-5.339h5.337c1.231 0 2.053-.819 2.053-2.053v-2.463c-.41-1.234-1.231-2.053-2.053-2.053zM-103.456 434.493c0-2.463-2.053-2.873-4.104-2.873h-1.643c-2.053 0-3.694.82-4.104 2.463v.82c0 1.229-.41 3.692-2.874 3.692-3.283 0-4.104-2.053-4.104-8.211 0-6.155.411-9.438 3.695-9.438 2.873 0 3.283 1.641 3.283 2.873v1.229c0 2.463 2.054 2.873 4.104 2.873h1.643c2.464 0 4.104-.82 4.104-2.873v-4.518c0-5.336-4.104-9.031-11.084-9.854 0 0 3.284-3.692 6.567-6.565 3.284-2.875 2.464-4.105 1.23-6.158-1.231-2.054-3.693-2.054-6.157.41-2.874 2.463-7.801 6.979-10.675 12.313 0 0 .41-5.338 4.928-11.903 0 0 2.054-3.695-1.23-5.337-2.054-1.231-3.694-.821-4.928 1.229-1.23 2.053-5.337 8.623-5.747 13.549l-1.231-6.979c-.409-1.646-2.053-3.285-4.516-2.875-2.054.412-3.284 2.465-2.874 4.518.41 2.463 5.337 32.435 10.674 40.232 2.054 2.873 3.284 6.565 12.728 6.565 3.694 0 11.085-.408 12.729-10.674 0-.822.41-2.875.41-2.875-.824-.814-.824-.814-.824-1.633 0 .41 0 0 0 0z"/></g><path fill="#0878B7" d="M335.533 422.444h6.789c1.118 0 2.076-.957 2.076-2.076v-.799c0-1.117-.958-2.076-2.076-2.076h-6.789c-6.552 0-7.354 5.432-7.354 7.666v4.313c0 2.236.802 7.668 7.354 7.668h6.789c1.118 0 2.076-.957 2.076-2.073v-.802c0-1.116-.958-2.075-2.076-2.075h-6.789c-.48 0-1.759 0-1.759-2.396h6.067c1.118 0 2.078-.959 2.078-2.076v-.799c0-1.117-.96-2.076-2.078-2.076h-6.067c-.077-2.399 1.278-2.399 1.759-2.399zM292.398 431.308c-1.518 0-3.674 0-3.674-1.756 0-1.758 2.076-1.758 3.674-1.758v3.514zm4.954-14.297c0-1.119-.959-2.078-2.078-2.078h-.797c-1.119 0-2.078.959-2.078 2.078v5.433s-8.065-.877-8.065 6.946c0 3.679 1.677 7.828 6.55 7.828h4.233a2.317 2.317 0 0 0 2.315-2.313l-.08-17.894zM313.246 426.597c0-.561-.078-2.153-.319-4.071-.316-2.558-2.075-5.033-6.391-5.033-4.313 0-5.19 2.637-5.99 4.231-.799 1.681-.719 5.832-.719 5.832v5.191c0 .639.398 1.197.879 1.598.318.238.72.318 1.197.318h.799c.398 0 .721-.08 1.04-.24.638-.315 1.116-.957 1.116-1.756v-.479h3.516v2.875c0 1.116.959 2.075 2.077 2.075h.8c1.117 0 2.075-.959 2.075-2.075-.08.002-.08-8.466-.08-8.466zm-8.387.72c0-2.875 0-4.873 1.76-4.873 1.757 0 1.757 1.918 1.757 4.873h-3.517zM326.108 414.937h-10.702c-1.119 0-2.078.955-2.078 2.074v.801c0 1.117.959 2.076 2.078 2.076h2.875v15.179c0 1.116.957 2.073 2.076 2.073h.799c1.118 0 2.078-.957 2.078-2.073v-15.179h2.874c1.116 0 2.073-.959 2.073-2.076v-.801c.001-1.119-.956-2.074-2.073-2.074zM275.066 429.552v-7.508c0-1.119-.959-2.078-2.076-2.078h-.799c-1.118 0-2.076.959-2.076 2.078v6.789s0 3.035-1.838 3.035c0 0-1.838.238-1.838-3.275v-9.022c0-.959-.719-1.838-1.676-1.998-.16-.08-.32-.08-.561-.08h-.479c-.16 0-.398 0-.561.08-.958.16-1.679 1.039-1.679 2.078v9.022s-.798 8.387 6.472 8.547c7.272.081 7.111-6.789 7.111-7.668zM259.01 429.713c0-1.117-.958-1.518-2.076-1.518h-.8c-1.038 0-1.917.317-2.075 1.194v.48c0 .561-.24 1.836-1.519 1.836-1.599 0-2.077-1.117-2.077-4.152 0-3.112.16-4.793 1.837-4.793 1.358 0 1.679.879 1.679 1.439v.719c0 1.117.958 1.521 2.076 1.521h.8c1.118 0 2.076-.4 2.076-1.521v-2.313c0-2.798-1.997-4.636-5.512-5.033 0 0 1.598-1.916 3.195-3.355 1.598-1.438 1.357-2.076.559-3.035-.719-.957-1.757-.957-3.194.24-1.438 1.199-3.914 3.438-5.433 6.313 0 0 .24-2.56 2.477-6.07 0 0 .958-1.838-.64-2.797-.958-.562-1.837-.398-2.556.559-.72 1.039-2.557 4.314-2.955 6.791l-.56-3.596c-.08-.797-1.039-1.676-2.235-1.521-.959.162-1.678 1.279-1.519 2.238.398 1.357 2.875 16.535 5.512 20.527.958 1.518 1.678 3.272 6.391 3.272 1.917 0 5.671-.237 6.391-5.432.079-.4.079-1.439.079-1.439v-.317c.079-.076.079-.237.079-.237zM280.418 422.444h-.799c-1.118 0-2.076.959-2.076 2.078v10.543c0 1.116.958 2.075 2.076 2.075h.799c1.118 0 2.076-.959 2.076-2.075v-10.543a2.064 2.064 0 0 0-2.076-2.078zM285.93 409.985h-3.437v-3.438c0-.797-.721-1.518-1.52-1.518h-1.916c-.801 0-1.519.719-1.519 1.518v3.438H274.1c-.799 0-1.519.719-1.519 1.518v1.916c0 .799.72 1.518 1.519 1.518h3.438v3.437c0 .799.718 1.518 1.519 1.518h1.916c.799 0 1.52-.719 1.52-1.518v-3.437h3.437c.799 0 1.519-.719 1.519-1.518v-1.916a1.519 1.519 0 0 0-1.519-1.518z"/><g fill="#E7B030"><path d="M346.874 437.14v-2.635c0-1.52.399-2.955 2.316-2.955 1.918 0 2.314 1.519 2.314 2.955v1.037h2.555v1.598h-7.185zm3.435-2.634c0-.959-.396-1.354-1.036-1.354-.641 0-1.037.396-1.037 1.354v1.119h2.152v-1.119h-.079zM346.874 430.592v-1.598h7.188v1.598h-7.188zM352.706 427.877h-3.754v-1.598h3.354c.479 0 .722-.16.722-.642 0-.397-.239-.799-.563-1.116h-3.513v-1.601h5.188v1.601h-.8c.399.317.88.879.88 1.758.003.958-.477 1.598-1.514 1.598zM353.425 422.206l-.88-.639c.399-.48.642-1.199.642-1.841 0-.479-.158-.797-.479-.797-.399 0-.479.238-.641.957-.158.959-.399 2.078-1.6 2.078-1.037 0-1.678-.879-1.678-1.998 0-1.039.241-1.678.718-2.313l.88.639c-.396.559-.558 1.039-.558 1.518 0 .479.158.72.479.72.318 0 .399-.318.563-.957.158-1.039.396-2.078 1.596-2.078 1.278 0 1.759 1.119 1.759 2.315-.003 1.035-.402 1.837-.801 2.396z"/></g><g><path fill="#0878B7" d="M323.836-110.357h31.201c5.337 0 9.441-4.104 9.441-9.441v-3.695c0-5.337-4.104-9.44-9.441-9.44h-31.201c-29.969 0-33.664 25.043-33.664 35.308v19.705c0 10.264 3.694 35.307 33.664 35.307h31.201c5.337 0 9.441-4.104 9.441-9.44v-3.693c0-5.338-4.104-9.442-9.441-9.442h-31.201c-2.053 0-8.211 0-8.211-11.084h27.917c5.337 0 9.441-4.104 9.441-9.441v-3.693c0-5.338-4.104-9.44-9.441-9.44h-27.917c0-11.511 6.158-11.511 8.211-11.511zM125.957-69.714c-6.979 0-16.832 0-16.832-8.21 0-8.211 9.853-8.211 16.832-8.211v16.421zm22.579-65.686c0-5.337-4.104-9.441-9.441-9.441h-3.694c-5.337 0-9.44 4.104-9.44 9.441v24.633s-36.948-4.105-36.948 31.608c0 16.832 7.39 35.72 29.969 35.72h19.296c5.747 0 10.264-4.519 10.264-10.265V-135.4h-.006zM221.613-91.062c0-2.874-.41-9.854-1.644-18.888-1.643-11.494-9.854-22.987-29.56-22.987s-23.813 11.903-27.507 19.705c-3.693 7.801-3.283 26.686-3.283 26.686v23.813c0 2.873 1.643 5.746 4.104 7.391 1.645 1.23 3.285 1.643 5.338 1.643h3.693c1.644 0 3.284-.409 4.518-1.229 2.873-1.643 4.928-4.518 4.928-8.21v-2.054h16.011v13.138c0 5.337 4.104 9.439 9.441 9.439h3.694c5.337 0 9.441-4.104 9.441-9.439.826-.417.826-39.008.826-39.008zm-38.592 2.874c0-13.14 0-22.58 8.211-22.58 8.212 0 7.801 8.621 7.801 22.58h-16.012zM280.73-144.842h-49.267c-5.337 0-9.44 4.104-9.44 9.441v3.693c0 5.337 4.104 9.442 9.44 9.442h13.14v69.381c0 5.338 4.104 9.441 9.44 9.441h3.693c5.337 0 9.441-4.104 9.441-9.441v-69.38h13.139c5.337 0 9.44-4.105 9.44-9.442v-3.693c.416-4.926-3.689-9.442-9.026-9.442zM45.901-77.514V-112c0-5.336-4.104-9.441-9.439-9.441h-3.695c-5.337 0-9.441 4.104-9.441 9.441v31.201s0 13.958-8.211 13.958c0 0-8.211 1.229-8.211-15.188v-41.466c0-4.516-3.284-8.211-7.801-9.03-.82 0-1.643-.41-2.463-.41h-2.053c-.821 0-1.645 0-2.464.41-4.518.819-7.801 4.927-7.801 9.441v41.464s-3.694 38.591 29.56 39.412c32.84.001 32.019-31.2 32.019-35.306zM-27.585-76.693c0-5.336-4.104-6.979-9.441-6.979h-3.694c-4.517 0-8.62 1.644-9.441 5.748v2.049c0 2.463-.821 8.621-6.979 8.621-7.39 0-9.439-5.336-9.439-19.295 0-14.368.819-22.17 8.62-22.17 6.158 0 7.801 4.104 7.801 6.567v3.283c0 5.339 4.104 6.979 9.441 6.979h3.694c5.337 0 9.441-1.645 9.441-6.979v-10.674c0-12.728-9.031-21.349-25.453-22.991 0 0 7.39-8.619 14.779-15.188 7.389-6.568 6.156-9.441 2.873-13.958-3.283-4.516-8.211-4.104-14.778 1.231-6.568 5.336-18.063 16.011-25.043 28.735 0 0 .821-11.904 11.495-27.917 0 0 4.516-8.21-2.874-12.727-4.518-2.872-8.622-2.05-11.496 2.876-3.284 4.516-11.905 20.116-13.547 31.2l-2.465-16.421c-.409-3.694-4.928-7.801-10.265-6.979-4.516.821-7.8 5.747-6.979 10.263 1.229 5.748 12.727 75.54 24.632 94.013 4.516 6.979 7.801 15.19 29.146 15.19 8.621 0 25.863-.822 29.561-25.043.409-1.644.409-6.57.409-6.57v-1.641c.002-.403.002-1.223.002-1.223zM70.534-110.357H66.84c-5.337 0-9.441 4.104-9.441 9.441v48.442c0 5.337 4.104 9.44 9.441 9.44h3.694c5.338 0 9.441-4.104 9.441-9.44v-48.442c.411-5.335-4.103-9.441-9.441-9.441zM95.988-167.421H80.386v-15.601c0-3.695-3.284-6.979-6.979-6.979h-9.031c-3.695 0-6.979 3.284-6.979 6.979v15.601H41.796c-3.694 0-6.979 3.284-6.979 6.979v9.03c0 3.695 3.284 6.979 6.979 6.979h15.601v15.601c0 3.695 3.284 6.979 6.979 6.979h9.031c3.693 0 6.979-3.284 6.979-6.979v-16.01h15.602c3.694 0 6.979-3.285 6.979-6.979v-9.032c-.001-3.695-3.285-6.568-6.979-6.568z"/><g fill="#E7B030"><path d="M375.975-43.029v-11.905c0-6.979 2.054-13.548 10.675-13.548 9.031 0 10.674 6.979 10.674 13.548v4.517h11.905v7.392l-33.254-.004zm15.6-11.906c0-4.519-1.644-6.157-4.927-6.157-3.284 0-4.928 1.642-4.928 6.157v4.927h9.854v-4.927h.001zM375.975-72.587v-6.979h33.254v6.979h-33.254zM402.659-85.314h-17.241v-7.392h15.188c2.053 0 3.283-.819 3.283-2.873 0-2.053-1.229-3.693-2.463-5.337h-16.012v-7.39h23.812v7.39h-3.692c1.643 1.231 4.104 4.105 4.104 8.21.001 4.518-2.052 7.392-6.979 7.392zM405.944-111.589l-4.104-2.873c2.054-2.053 3.284-5.337 3.284-8.211 0-2.053-.82-3.695-2.465-3.695-1.643 0-2.463 1.232-2.873 4.519-.82 4.516-2.053 9.439-7.391 9.439-4.927 0-7.391-4.104-7.391-9.439 0-4.928 1.23-7.802 3.283-10.675l4.104 2.873c-1.643 2.464-2.463 4.928-2.463 6.979s.82 3.284 2.054 3.284c1.23 0 2.053-1.231 2.463-4.105.82-4.516 2.054-9.853 7.391-9.853 5.748 0 8.211 4.926 8.211 10.674-.408 5.336-2.05 8.62-4.103 11.083z"/></g></g><circle fill="#0878B7" cx="130.134" cy="125.196" r="120.64"/><g fill="#FFF"><path d="M138.339 173.785c0-6.267-5.161-8.109-11.057-8.109h-4.426c-5.53 0-9.954 1.844-11.058 6.638V174.525c0 2.95-1.106 9.953-8.111 9.953-8.479 0-11.06-6.267-11.06-22.488 0-16.588 1.107-25.804 9.957-25.804 7.373 0 8.847 4.791 8.847 7.741v3.686c0 6.268 5.162 8.111 11.06 8.111h4.424c6.267 0 11.057-2.215 11.057-8.111v-12.534c0-14.747-10.688-24.7-29.493-26.912 0 0 8.849-10.323 17.328-17.696 8.849-7.374 7.004-11.06 3.316-16.222-4.057-5.162-9.584-5.162-16.958 1.477-7.374 6.267-21.013 18.432-29.126 33.917 0 0 1.105-14.01 13.272-32.443 0 0 5.161-9.585-3.318-14.745-5.53-2.95-9.954-2.213-13.638 3.317-3.687 5.529-14.012 23.223-15.853 36.126l-2.949-19.169c-.734-4.055-5.528-9.216-12.166-8.11-5.161.736-9.215 7.003-8.11 12.165 1.106 7.005 14.748 88.109 29.126 109.491 5.161 8.109 9.216 17.326 34.285 17.326 10.323 0 30.23-1.103 34.286-29.123.368-2.212.736-7.741.736-7.741v-1.844c-.371-.001-.371-1.108-.371-1.108zM209.859 67.982h-18.433V49.548c0-4.424-3.687-8.11-8.109-8.11h-10.323c-4.424 0-8.107 3.686-8.107 8.11v18.434H146.45c-4.425 0-8.111 3.685-8.111 8.111v10.32c0 4.426 3.687 8.112 8.111 8.112h18.432v18.433c0 4.423 3.685 8.107 8.107 8.107h10.323c4.423 0 8.109-3.685 8.109-8.107V94.524h18.432c4.426 0 8.109-3.685 8.109-8.112v-10.32c.006-4.424-3.68-8.11-8.103-8.11z"/></g></svg>