<svg id="Layer_1" enable-background="new 0 0 512 512" height="512" viewBox="0 0 512 512" width="512" xmlns="http://www.w3.org/2000/svg"><path d="m64.553 30.256v359.768c0 7.108 3.87 13.658 10.092 17.094 134.451 74.241 161.784 89.336 171.932 94.935 5.867 3.237 12.98 3.237 18.846-.001 33.888-18.708 136.302-75.26 171.959-94.95 6.214-3.431 10.064-9.964 10.064-17.063v-359.784c0-12.568-10.188-22.756-22.756-22.756h-337.381c-12.568.001-22.756 10.189-22.756 22.757z" fill="#fed22b"/><path d="m407.154 57.888v313.918c0 3.68-1.99 7.06-5.21 8.829-24.959 13.79-62.388 34.449-95.496 52.728-17.129 9.459-33.089 18.279-45.578 25.169-3.04 1.68-6.71 1.68-9.74 0-8.43-4.65-25.729-14.21-45.578-25.159-36.049-19.909-80.497-44.458-95.486-52.728-3.22-1.78-5.22-5.16-5.22-8.84v-313.917c0-5.57 4.52-10.09 10.1-10.09h282.109c5.579 0 10.099 4.52 10.099 10.09z" fill="#e04955"/><path d="m288.189 489.481c-9.15 5.05-16.969 9.359-22.769 12.57-5.86 3.24-12.979 3.24-18.839 0-10.15-5.6-37.489-20.689-171.933-94.936-6.22-3.43-10.09-9.98-10.09-17.089v-359.767c0-12.57 10.18-22.759 22.749-22.759h12.35c-.07.68-.1 1.37-.1 2.07v364.656c0 7.21 3.92 13.849 10.23 17.329 136.275 75.257 163.984 90.556 174.263 96.226 1.319.73 2.709 1.3 4.139 1.7z" fill="#fdc202"/><path d="m294.479 439.973c-12.539 6.93-24.079 13.31-33.609 18.559-3.04 1.68-6.71 1.68-9.74 0-8.43-4.65-25.729-14.21-45.578-25.159-36.049-19.909-80.497-44.458-95.486-52.728-3.22-1.78-5.22-5.16-5.22-8.84v-313.917c0-5.57 4.52-10.09 10.1-10.09h24.899v300.309c0 4 2.18 7.68 5.68 9.61 16.299 9 64.637 35.699 103.836 57.348 18.539 10.229 35.028 19.328 45.118 24.908z" fill="#da2f3c"/><path d="m306.448 47.798v385.565c-17.129 9.459-33.089 18.279-45.578 25.169-3.04 1.68-6.71 1.68-9.74 0-8.43-4.65-25.729-14.21-45.578-25.159v-385.575z" fill="#fff5f4"/><path d="m294.479 439.973c-26.547 14.678-21.036 11.623-33.609 18.559-3.04 1.68-6.71 1.68-9.74 0-8.43-4.65-25.729-14.21-45.578-25.159v-42.508c35.188 19.449 73.356 40.497 88.927 49.108z" fill="#ebe0da"/><path d="m294.479 439.973c-26.409 14.602-21.054 11.633-33.609 18.559-3.04 1.68-6.71 1.68-9.74 0-8.43-4.65-25.729-14.21-45.578-25.159v-42.508c35.188 19.449 73.356 40.497 88.927 49.108z" fill="#ebe0da"/><path d="m424.691 0h-337.382c-16.683 0-30.256 13.573-30.256 30.256v359.769c0 9.837 5.352 18.902 13.967 23.658 8.021 4.429 159.699 88.186 171.934 94.937 8.168 4.507 17.924 4.509 26.094-.001 33.889-18.709 136.303-75.261 171.961-94.95 8.597-4.748 13.938-13.801 13.938-23.628v-359.785c0-16.683-13.573-30.256-30.256-30.256zm15.256 390.04c0 4.367-2.372 8.389-6.19 10.498-35.657 19.69-138.07 76.241-171.958 94.949-3.63 2.006-7.967 2.005-11.599.001-8.35-4.608-162.119-89.518-171.93-94.935-3.835-2.118-6.218-6.152-6.218-10.528v-359.769c0-8.413 6.844-15.256 15.256-15.256h337.382c8.412 0 15.256 6.843 15.256 15.256v359.784z"/><path d="m397.058 40.298h-282.116c-9.7 0-17.591 7.891-17.591 17.59v313.92c0 6.404 3.482 12.304 9.086 15.398l141.065 77.894c5.333 2.944 11.681 2.933 16.991.001l141.077-77.898c5.6-3.094 9.079-8.992 9.079-15.395v-313.92c0-9.698-7.891-17.59-17.591-17.59zm2.592 331.51c0 .943-.51 1.811-1.331 2.265l-84.373 46.588v-281.104c0-4.142-3.358-7.5-7.5-7.5s-7.5 3.357-7.5 7.5v289.386l-41.703 23.027c-.78.432-1.71.431-2.491 0l-41.7-23.026v-57.033c0-4.142-3.358-7.5-7.5-7.5s-7.5 3.357-7.5 7.5v48.751l-84.368-46.587c-.824-.454-1.336-1.323-1.336-2.267v-313.92c0-1.429 1.163-2.591 2.592-2.591h83.112v286.614c0 4.142 3.358 7.5 7.5 7.5s7.5-3.357 7.5-7.5v-286.613h85.893v54.261c0 4.142 3.358 7.5 7.5 7.5s7.5-3.357 7.5-7.5v-54.261h83.112c1.429 0 2.592 1.162 2.592 2.591v313.919z"/><path d="m174.904 175.867h-38.17c-3.172 0-6.234 1.531-6.234 4.484v70.982c0 6.005 14.218 5.933 14.218 0v-29.968h16.734c5.914 0 5.75-11.156 0-11.156h-16.734v-21.874h30.186c5.757.001 5.943-12.468 0-12.468z"/><path d="m377.896 175.867h-38.17c-3.172 0-6.234 1.531-6.234 4.484v70.982c0 6.005 14.218 5.933 14.218 0v-29.968h16.734c5.914 0 5.75-11.156 0-11.156h-16.734v-21.874h30.186c5.758.001 5.943-12.468 0-12.468z"/><path d="m258.123 175.867h-21.983c-3.281 0-5.359 2.078-5.359 4.375v71.091c0 6.005 14.218 5.933 14.218 0v-25.374h12.25c15.941 0 25.702-8.014 25.702-25.483 0-17.937-10.937-24.609-24.828-24.609zm-.875 38.936h-12.25v-26.468h12.25c7.109 0 11.484 4.047 11.484 12.578 0 8.383-2.757 13.89-11.484 13.89z"/></svg>